# xmcd
#
# Track frame offsets: 
#        150
#        12827
#        23585
#        35817
#        46457
#        58835
#        70837
#        83735
#        94880
#        107172
#        117850
#        126092
#        136182
#        145682
#        158927
#        167187
#        179490
#        188925
#
# Disc length: 2704 seconds
#
# Revision: 3
# Processed by: cddbd v1.5.1PL0 Copyright (c) Steve Scherf et al.
# Submitted via: ExactAudioCopy v0.90b4
#
DISCID=fa0a8e12
DTITLE=Various Artist - Stone Rock Blues
DYEAR=1994
DGENRE=Blues
TTITLE0=Chuck Berry - Carol
TTITLE1=Muddy Waters - Look What You've Done
TTITLE2=Chuck Berry - Little Queenie
TTITLE3=Bo Diddley - Mona
TTITLE4=Arthur Alexander - You Better Move On
TTITLE5=Chuck Berry - Around And Around
TTITLE6=Muddy Waters - I Just Want To MAke Love To You
TTITLE7=Howlin' Wolf - Little Red Rooster (aka The Red Rooster)
TTITLE8=Chuck Berry - You Can't Catch Me
TTITLE9=Buddy Holly - Not Fade Away
TTITLE10=Chuck Berry - Come On
TTITLE11=Dale Hawkins - Susie Q
TTITLE12=Bo Diddley - Crackin' Up
TTITLE13=Muddy Waters - Mannish Boy
TTITLE14=Chuck Berry - I'm Talking About You
TTITLE15=Muddy Waters - I Can't Be Satisfied
TTITLE16=Chuck Berry - Bye Bye Johnny
TTITLE17=Muddy Waters - Rollin' Stone
EXTD=The Original Recordings Covered By The Rolling Stones\n
EXTT0=
EXTT1=
EXTT2=
EXTT3=
EXTT4=
EXTT5=
EXTT6=
EXTT7=
EXTT8=
EXTT9=
EXTT10=
EXTT11=
EXTT12=
EXTT13=
EXTT14=
EXTT15=
EXTT16=
EXTT17=
PLAYORDER=
